# xmcd
#
# Track frame offsets: 
#        150
#        19095
#        47400
#        70385
#        90715
#        108845
#        123545
#        143815
#        164450
#        188625
#        212515
#
# Disc length: 3108 seconds
#
# Revision: 0
# Processed by: cddbd v1.5PL3 Copyright (c) Steve Scherf et al.
# Submitted via: ExactAudioCopy v0.95a5
#
DISCID=920c220b
DTITLE=Michael Coleman (& the Backbreakers) - Self-Rising Blues
DYEAR=1900
DGENRE=Blues
TTITLE0=Love Somebody
TTITLE1=Lost My Job In The City
TTITLE2=Homeless Man
TTITLE3=Whiskey Drinking Woman
TTITLE4=Wago Wago Wago Shake Your Body
TTITLE5=Here I Am
TTITLE6=Blues In E
TTITLE7=Self-Rising Blues
TTITLE8=Dreamer
TTITLE9=Basement Blues
TTITLE10=I Gamble, I Gamble
EXTD=
EXTT0=
EXTT1=
EXTT2=
EXTT3=
EXTT4=
EXTT5=
EXTT6=
EXTT7=
EXTT8=
EXTT9=
EXTT10=
PLAYORDER=
